<?xml version="1.0" encoding="UTF-8" standalone="no" ?>
<!DOCTYPE svg PUBLIC "-//W3C//DTD SVG 1.1//EN" "http://www.w3.org/Graphics/SVG/1.1/DTD/svg11.dtd">
<svg xmlns="http://www.w3.org/2000/svg" xmlns:xlink="http://www.w3.org/1999/xlink" version="1.1" width="1080" height="1080" viewBox="0 0 1080 1080" xml:space="preserve">
<desc>Created with Fabric.js 5.2.4</desc>
<defs>
</defs>
<g transform="matrix(1 0 0 1 540 540)" id="7bfe65aa-525d-4050-ba51-0688d5e391c8"  >
<rect style="stroke: none; stroke-width: 1; stroke-dasharray: none; stroke-linecap: butt; stroke-dashoffset: 0; stroke-linejoin: miter; stroke-miterlimit: 4; fill: rgb(255,255,255); fill-rule: nonzero; opacity: 1; visibility: hidden;" vector-effect="non-scaling-stroke"  x="-540" y="-540" rx="0" ry="0" width="1080" height="1080" />
</g>
<g transform="matrix(1 0 0 1 540 540)" id="b3fba702-ae39-41ad-ac3b-b861b3b82258"  >
</g>
<g transform="matrix(4.97 0 0 4.97 540 540)" id="75b79dd3-203c-4678-90a4-7d849bf3a6a1"  >
<path style="stroke: rgb(0,0,0); stroke-width: 0; stroke-dasharray: none; stroke-linecap: butt; stroke-dashoffset: 0; stroke-linejoin: miter; stroke-miterlimit: 4; fill: rgb(255,255,255); fill-rule: nonzero; opacity: 1;" vector-effect="non-scaling-stroke"  transform=" translate(-116.02, -132)" d="M 211.69238 27.27051 C 210.23609041446156 26.13363378668086 208.33724768693426 25.73106124469359 206.54492000000002 26.1792 L 78.54492000000002 58.1792 C 75.87391987662946 58.84694760032195 74.00010148544487 61.246796682683616 74 64 L 74 178.10742 C 61.83520785002454 167.7894692432607 44.13087184379135 167.32227377092664 31.438833311043496 176.9842835905162 C 18.746794778295644 186.64629341010578 14.484177279920488 203.83617057934467 21.191514585521432 218.3086928936994 C 27.898851891122376 232.7812152080541 43.770303254262174 240.63989300132585 59.346432500795515 237.20092897623192 C 74.92256174732887 233.761964951138 86.00975111455958 219.95124386329687 86 203.99999999999997 L 86 116.68457 L 202 87.68457 L 202 146.10742 C 189.83520785002455 135.7894692432607 172.13087184379134 135.32227377092664 159.43883331104348 144.9842835905162 C 146.74679477829565 154.64629341010578 142.4841772799205 171.83617057934467 149.19151458552142 186.3086928936994 C 155.89885189112238 200.7812152080541 171.77030325426216 208.63989300132585 187.34643250079552 205.20092897623192 C 202.92256174732887 201.761964951138 214.00975111455958 187.95124386329687 214 171.99999999999997 L 214 32 C 213.99983750739173 30.152332488636265 213.14860902510418 28.40773130009822 211.69238 27.270509999999998 Z M 52 226 C 39.84973550372254 226 30 216.15026449627746 30 204 C 30 191.84973550372254 39.84973550372254 182 52 182 C 64.15026449627746 182 74 191.84973550372254 74 204 C 73.98628333037186 216.14457832810896 64.14457832810898 225.98628333037186 52 226 Z M 86 104.31543 L 86 68.68457 L 202 39.684569999999994 L 202 75.31543 Z M 180 194 C 167.84973550372254 194 158 184.15026449627746 158 172 C 158 159.84973550372254 167.84973550372254 150 180 150 C 192.15026449627746 150 202 159.84973550372254 202 172 C 201.98628333037186 184.14457832810896 192.14457832810896 193.98628333037186 180 194 Z" stroke-linecap="round" />
</g>
</svg>